<svg width="145" height="200" viewBox="0 0 145 200" fill="none" xmlns="http://www.w3.org/2000/svg">
<path d="M123.136 0H21.7299C9.72413 0 0 11.1875 0 25V175C0 188.812 9.72413 200 21.7299 200H123.136C135.142 200 144.866 188.812 144.866 175V25C144.866 11.1875 135.142 0 123.136 0ZM130.379 175C130.379 179.604 127.138 183.333 123.136 183.333H21.7299C17.728 183.333 14.4866 179.604 14.4866 175V25C14.4866 20.3958 17.728 16.6667 21.7299 16.6667H123.136C127.138 16.6667 130.379 20.3958 130.379 25V175ZM101.406 141.667H43.4598C41.5388 141.667 39.6964 142.545 38.338 144.107C36.9796 145.67 36.2165 147.79 36.2165 150C36.2165 152.21 36.9796 154.33 38.338 155.893C39.6964 157.455 41.5388 158.333 43.4598 158.333H101.406C103.327 158.333 105.17 157.455 106.528 155.893C107.886 154.33 108.65 152.21 108.65 150C108.65 147.79 107.886 145.67 106.528 144.107C105.17 142.545 103.327 141.667 101.406 141.667ZM101.406 108.333H43.4598C41.5388 108.333 39.6964 109.211 38.338 110.774C36.9796 112.337 36.2165 114.457 36.2165 116.667C36.2165 118.877 36.9796 120.996 38.338 122.559C39.6964 124.122 41.5388 125 43.4598 125H101.406C103.327 125 105.17 124.122 106.528 122.559C107.886 120.996 108.65 118.877 108.65 116.667C108.65 114.457 107.886 112.337 106.528 110.774C105.17 109.211 103.327 108.333 101.406 108.333ZM101.406 75H43.4598C41.5388 75 39.6964 75.878 38.338 77.4408C36.9796 79.0036 36.2165 81.1232 36.2165 83.3333C36.2165 85.5435 36.9796 87.6631 38.338 89.2259C39.6964 90.7887 41.5388 91.6667 43.4598 91.6667H101.406C103.327 91.6667 105.17 90.7887 106.528 89.2259C107.886 87.6631 108.65 85.5435 108.65 83.3333C108.65 81.1232 107.886 79.0036 106.528 77.4408C105.17 75.878 103.327 75 101.406 75ZM43.4598 58.3333H72.433C74.354 58.3333 76.1964 57.4554 77.5548 55.8926C78.9132 54.3297 79.6763 52.2101 79.6763 50C79.6763 47.7899 78.9132 45.6702 77.5548 44.1074C76.1964 42.5446 74.354 41.6667 72.433 41.6667H43.4598C41.5388 41.6667 39.6964 42.5446 38.338 44.1074C36.9796 45.6702 36.2165 47.7899 36.2165 50C36.2165 52.2101 36.9796 54.3297 38.338 55.8926C39.6964 57.4554 41.5388 58.3333 43.4598 58.3333Z" fill="#A08135"/>
</svg>
