<svg width="200" height="274" viewBox="0 0 200 274" fill="none" xmlns="http://www.w3.org/2000/svg">
<path d="M185.185 163.244V53.5838C172.145 64.3836 160.34 69.7835 149.769 69.7835C143.441 69.7835 137.847 67.8847 132.986 64.0869C125.27 58.2716 118.171 53.7321 111.69 50.4685C105.208 47.2048 98.341 45.5729 91.088 45.5729C77.7392 45.5729 62.1914 53.1091 44.4444 68.1814V174.815C63.3488 161.404 80.054 154.699 94.5602 154.699C98.804 154.699 102.797 155.144 106.539 156.034C110.282 156.924 114.062 158.467 117.882 160.662C121.701 162.858 124.672 164.697 126.794 166.181C128.916 167.664 132.099 170.008 136.343 173.213L139.583 175.705C142.978 178.316 146.875 179.621 151.273 179.621C160.532 179.621 171.836 174.162 185.185 163.244ZM29.6296 22.7865C29.6296 26.9402 28.9545 30.738 27.6042 34.1797C26.2539 37.6214 24.4599 40.351 22.2222 42.3686V267.741C22.2222 269.402 21.875 270.767 21.1806 271.835C20.4861 272.903 19.5988 273.438 18.5185 273.438H11.1111C10.0309 273.438 9.14352 272.903 8.44907 271.835C7.75463 270.767 7.40741 269.402 7.40741 267.741V42.3686C5.16975 40.351 3.37577 37.6214 2.02546 34.1797C0.675154 30.738 0 26.9402 0 22.7865C0 16.4964 1.44676 11.1262 4.34028 6.67572C7.2338 2.22524 10.7253 0 14.8148 0C18.9043 0 22.3958 2.22524 25.2894 6.67572C28.1829 11.1262 29.6296 16.4964 29.6296 22.7865ZM200 34.1797V170.008C200 174.637 198.65 178.019 195.949 180.155C195.177 180.749 194.522 181.283 193.981 181.758C177.16 195.524 162.924 202.408 151.273 202.408C144.483 202.408 138.387 200.331 132.986 196.177L129.745 193.685C124.807 189.769 120.988 186.92 118.287 185.14C115.586 183.36 112.076 181.639 107.755 179.977C103.434 178.316 99.0355 177.485 94.5602 177.485C86.6898 177.485 77.6042 180.096 67.3032 185.318C57.0023 190.54 48.1867 196.593 40.8565 203.476C39.6991 204.544 38.4259 205.078 37.037 205.078C35.8025 205.078 34.5679 204.603 33.3333 203.654C30.8642 201.399 29.6296 198.076 29.6296 193.685V61.5947C29.6296 57.4409 30.8256 54.1772 33.2176 51.8036C35.9182 49.3113 38.9468 46.7894 42.3032 44.2378C45.6597 41.6862 50.0579 38.6005 55.4977 34.9808C60.9375 31.3611 66.821 28.4237 73.1481 26.1688C79.4753 23.9139 85.4552 22.7865 91.088 22.7865C99.7299 22.7865 107.793 24.626 115.278 28.3051C122.762 31.9841 130.826 37.0873 139.468 43.6147C142.4 45.8696 145.833 46.9971 149.769 46.9971C159.182 46.9971 171.142 40.351 185.648 27.0589C187.346 25.6348 188.542 24.626 189.236 24.0326C191.628 22.1337 194.02 22.2524 196.412 24.3886C198.804 26.7622 200 30.0259 200 34.1797Z" fill="#A08135"/>
</svg>
