<svg width="200" height="216" viewBox="0 0 200 216" fill="none" xmlns="http://www.w3.org/2000/svg">
<path fill-rule="evenodd" clip-rule="evenodd" d="M92.3077 0C41.3641 0 0 41.3641 0 92.3077C0 128.164 20.5077 159.256 50.4103 174.538L31.4513 207.713C30.0462 210.169 30.8974 213.297 33.3538 214.703C35.8103 216.108 38.9385 215.256 40.3436 212.8L59.8256 178.708C69.9333 182.513 80.8769 184.615 92.3077 184.615C103.738 184.615 114.682 182.513 124.79 178.708L144.272 212.8C145.677 215.256 148.805 216.108 151.262 214.703C153.718 213.297 154.569 210.169 153.164 207.713L134.205 174.538C164.108 159.256 184.615 128.164 184.615 92.3077C184.615 76.6 180.687 61.8 173.759 48.8461C172.421 46.3538 169.303 45.4103 166.805 46.7436C164.313 48.082 163.369 51.2 164.703 53.6974C170.862 65.2051 174.359 78.3487 174.359 92.3077C174.359 137.595 137.595 174.359 92.3077 174.359C47.0205 174.359 10.2564 137.595 10.2564 92.3077C10.2564 47.0205 47.0205 10.2564 92.3077 10.2564C112.549 10.2564 131.082 17.6051 145.395 29.7692C147.554 31.6051 150.795 31.3282 152.626 29.1744C154.456 27.0154 154.195 23.7795 152.041 21.9436C135.933 8.25641 115.077 0 92.3077 0ZM184.615 0C176.123 0 169.231 6.89231 169.231 15.3846C169.231 17.7487 169.769 19.9949 170.723 21.9949L99.2308 83.2821C97.0821 85.1231 96.8256 88.3641 98.6667 90.5128C100.508 92.6615 103.749 92.918 105.897 91.0769L177.692 29.5385C177.795 29.4513 177.872 29.3487 177.964 29.2564C179.979 30.2256 182.236 30.7692 184.615 30.7692C193.108 30.7692 200 23.8769 200 15.3846C200 6.89231 193.108 0 184.615 0ZM184.615 10.2564C187.446 10.2564 189.744 12.5538 189.744 15.3846C189.744 18.2154 187.446 20.5128 184.615 20.5128C181.785 20.5128 179.487 18.2154 179.487 15.3846C179.487 12.5538 181.785 10.2564 184.615 10.2564ZM92.3077 25.641C55.5128 25.641 25.641 55.5128 25.641 92.3077C25.641 129.103 55.5128 158.974 92.3077 158.974C129.103 158.974 158.974 129.103 158.974 92.3077C158.974 84.518 157.636 77.0308 155.179 70.0821C154.236 67.4154 151.297 66.0103 148.626 66.959C145.959 67.9026 144.559 70.841 145.503 73.5077C147.585 79.3897 148.718 85.7179 148.718 92.3077C148.718 123.441 123.441 148.718 92.3077 148.718C61.1744 148.718 35.8974 123.441 35.8974 92.3077C35.8974 61.1744 61.1744 35.8974 92.3077 35.8974C104.585 35.8974 115.949 39.8256 125.21 46.4923C127.508 48.1487 130.713 47.6256 132.364 45.3333C134.015 43.0359 133.497 39.8256 131.2 38.1692C120.251 30.2923 106.815 25.641 92.3077 25.641ZM92.3077 51.2821C69.6667 51.2821 51.2821 69.6667 51.2821 92.3077C51.2821 114.949 69.6667 133.333 92.3077 133.333C114.949 133.333 133.333 114.949 133.333 92.3077C133.333 89.4769 131.036 87.1795 128.205 87.1795C125.374 87.1795 123.077 89.4769 123.077 92.3077C123.077 109.287 109.287 123.077 92.3077 123.077C75.3282 123.077 61.5385 109.287 61.5385 92.3077C61.5385 75.3282 75.3282 61.5385 92.3077 61.5385C97.0205 61.5385 101.492 62.6051 105.487 64.5026C108.046 65.7179 111.103 64.6256 112.318 62.0718C113.538 59.5128 112.451 56.4564 109.897 55.2359C104.564 52.7026 98.6 51.2821 92.3077 51.2821ZM87.041 78.2974C86.2102 78.3179 85.3692 78.5436 84.6051 78.9846C80.0103 81.6462 76.9231 86.6205 76.9231 92.3077C76.9231 100.8 83.8154 107.692 92.3077 107.692C95.1128 107.692 97.7436 106.938 100.01 105.631C102.462 104.21 103.292 101.067 101.872 98.6154C100.456 96.1692 97.3128 95.3385 94.8615 96.7539C94.1077 97.1898 93.241 97.4359 92.3077 97.4359C89.4769 97.4359 87.1795 95.1385 87.1795 92.3077C87.1795 90.4103 88.2205 88.7487 89.7539 87.8615C92.2051 86.441 93.0359 83.3077 91.6154 80.8615C90.641 79.1744 88.8564 78.2461 87.041 78.2974Z" fill="#A08135"/>
</svg>
