<svg width="500" height="500" viewBox="0 0 500 500" fill="none" xmlns="http://www.w3.org/2000/svg">
<path d="M214.92 121.52L219.29 118.69C220.26 118.069 221.418 117.811 222.56 117.96L228.8 118.78C229.39 118.861 229.957 119.058 230.47 119.36L235.21 122.2L231.63 125L216.34 124.25L214.92 121.52Z" fill="#263238"/>
<path d="M214.9 155.43H229.69L232.76 158.01L213.79 159.47L214.9 155.43Z" fill="#A08135"/>
<path d="M196.84 162.1L214.92 159.25L232.76 158.01L251.99 160.01L253.38 179.37L249.95 231H208.23L196.84 181.09V162.1Z" fill="#263238"/>
<path d="M244.81 409.03L252.93 409.88L253.35 405L253.21 404.91L254.14 392.44V392.39L246.19 391.53L246.24 391.63L245.14 404.91V405L244.81 409.03Z" fill="#B97964"/>
<path d="M204.34 408H212.2L212.29 405.6L212.3 405.38L212.66 395.26L212.67 395.04L212.85 390H205.14V390.24L204.99 390.44L204.14 404.87V405.1L204.34 408Z" fill="#B97964"/>
<path d="M213.29 407.53H203.74C203.583 407.529 203.431 407.582 203.309 407.681C203.187 407.779 203.102 407.917 203.07 408.07L201.52 415.07C201.458 415.371 201.518 415.684 201.687 415.941C201.855 416.198 202.119 416.377 202.42 416.44C202.503 416.45 202.587 416.45 202.67 416.44C205.76 416.39 208.01 416.2 211.89 416.2C214.28 416.2 221.49 416.45 224.79 416.45C228.09 416.45 228.52 413.19 227.17 412.89C221.11 411.57 216.55 409.74 214.61 408C214.246 407.68 213.774 407.512 213.29 407.53Z" fill="#263238"/>
<path d="M253.79 407.28H244.24C244.083 407.279 243.931 407.332 243.809 407.431C243.687 407.529 243.602 407.667 243.57 407.82L242.02 414.82C241.958 415.121 242.018 415.434 242.187 415.691C242.355 415.948 242.619 416.127 242.92 416.19C243.003 416.2 243.087 416.2 243.17 416.19C246.26 416.14 248.51 415.95 252.39 415.95C254.78 415.95 261.99 416.2 265.29 416.2C268.59 416.2 269.02 412.94 267.67 412.64C261.61 411.32 257.05 409.49 255.11 407.75C254.746 407.43 254.274 407.262 253.79 407.28Z" fill="#263238"/>
<path opacity="0.2" d="M245.17 405H253.36L254.45 392.44L246.34 391.6L246.33 391.63L245.18 404.91L245.17 405Z" fill="black"/>
<path opacity="0.2" d="M204.6 405.3L212.29 406H212.3L212.67 395.47L212.66 395.36L205.29 390.49L204.62 405L204.6 405.3Z" fill="black"/>
<path d="M202.63 403.5L214.69 404.91C214.69 404.91 223.6 345.27 227.35 319.56C227.41 319.15 227.46 318.75 227.52 318.36C229 308.21 230.7 289.12 232.14 271.18C232.96 273.38 233.71 275.81 234.41 278.46C234.56 279.01 234.71 279.57 234.85 280.14C234.99 280.71 235.18 281.49 235.34 282.14C235.5 282.79 235.64 283.46 235.79 284.14C236.05 285.36 236.31 286.62 236.56 287.9C244.66 329.43 244.82 402.79 244.82 402.79L256.22 403.48C264.52 339.85 255.36 263.48 250.86 235.75C250.866 235.793 250.866 235.837 250.86 235.88C250.78 235.36 250.69 234.88 250.61 234.33C250.615 234.293 250.615 234.256 250.61 234.22C250.39 232.87 250.18 231.96 249.99 230.96H208.3C208.3 230.96 208.3 231.32 208.25 231.57C208.2 231.82 208.25 232.16 208.25 232.51C208.25 232.86 208.25 233.03 208.25 233.33C208.25 233.63 208.25 233.67 208.25 233.85C208.25 234.03 208.25 234.22 208.25 234.42C208.25 235.32 208.25 236.37 208.25 237.55C208.25 237.97 208.25 238.41 208.25 238.87C208.25 239.13 208.25 239.39 208.25 239.65C208.25 239.91 208.25 240.39 208.25 240.78C208.12 251.38 207.85 268.78 207.44 285.78C207.44 286.45 207.44 287.12 207.44 287.78C207.44 288.44 207.44 288.84 207.44 289.37C207.29 295.37 207.12 301.19 206.92 306.6C206.72 312.01 206.51 316.93 206.28 321.1C206.28 321.48 206.28 321.88 206.22 322.28C206.22 322.85 206.16 323.44 206.12 324.05C204.53 350 202.63 403.5 202.63 403.5Z" fill="#263238"/>
<path opacity="0.3" d="M202.63 403.5L214.69 404.91C214.69 404.91 223.6 345.27 227.35 319.56C227.41 319.15 227.46 318.75 227.52 318.36C229 308.21 230.7 289.12 232.14 271.18C232.96 273.38 233.71 275.81 234.41 278.46C234.56 279.01 234.71 279.57 234.85 280.14C234.99 280.71 235.18 281.49 235.34 282.14C235.5 282.79 235.64 283.46 235.79 284.14C236.05 285.36 236.31 286.62 236.56 287.9C244.66 329.43 244.82 402.79 244.82 402.79L256.22 403.48C264.52 339.85 255.36 263.48 250.86 235.75C250.865 235.71 250.865 235.67 250.86 235.63C250.78 235.18 250.69 234.75 250.61 234.33C250.615 234.293 250.615 234.256 250.61 234.22C250.38 233 250.17 231.96 249.99 230.96H208.23C208.23 230.96 208.23 231.32 208.23 231.57C208.23 231.82 208.23 232.15 208.23 232.51C208.23 232.87 208.23 233.03 208.23 233.33V233.85C208.23 234.03 208.23 234.22 208.23 234.42C208.23 235.32 208.23 236.37 208.23 237.55C208.23 237.97 208.23 238.41 208.23 238.87C208.23 239.13 208.23 239.39 208.23 239.65C208.23 239.91 208.23 240.39 208.23 240.78C208.1 251.38 207.83 268.78 207.42 285.78C207.42 286.45 207.42 287.12 207.42 287.78C207.42 288.44 207.42 288.84 207.42 289.37C207.27 295.37 207.1 301.19 206.9 306.6C206.7 312.01 206.5 317.12 206.26 321.35C206.26 321.65 206.26 321.96 206.2 322.28C206.2 322.85 206.14 323.44 206.1 324.05C204.53 350 202.63 403.5 202.63 403.5Z" fill="black"/>
<path d="M296.72 165.2L308.44 151.57C308.295 149.989 308.717 148.408 309.63 147.11C311.14 145.11 318.42 141.83 318.97 142.37C319.52 142.91 320.97 150.13 320.15 150.91C319.33 151.69 312.08 155.55 312.08 155.55L303.28 169.75L296.72 165.2Z" fill="#B97964"/>
<path d="M304.69 153.82C304.69 153.82 288.32 176.44 284.25 177.11C280.18 177.78 252 160 252 160L251.47 178.37C251.47 178.37 277.1 191.94 284.9 190.51C292.7 189.08 311.53 160.38 311.53 160.38L304.69 153.82Z" fill="#263238"/>
<path d="M153.1 167.32L141.38 153.69C141.524 152.112 141.103 150.535 140.19 149.24C138.68 147.24 131.4 143.96 130.85 144.5C130.3 145.04 128.9 152.26 129.67 153.04C130.44 153.82 137.74 157.67 137.74 157.67L146.54 171.87L153.1 167.32Z" fill="#B97964"/>
<path d="M144.23 155.94C144.23 155.94 160.59 178.57 164.67 179.23C168.75 179.89 196.93 162.14 196.93 162.14L196.99 181.73C196.99 181.73 170.52 195.93 162.72 194.51C154.92 193.09 137.4 162.51 137.4 162.51L144.23 155.94Z" fill="#263238"/>
<path d="M208.65 228.86L202.63 259.89L226.5 267.4L232.28 256.91L239.01 265.9L256.25 261.4L249.31 227.9L208.65 228.86Z" fill="#263238"/>
<path d="M234.79 206.72L237.36 173.57L232.76 158.01L213.79 159.47L218.29 175.9L234.79 206.72Z" fill="#A08135"/>
<path opacity="0.4" d="M234.79 206.72L237.36 173.57L232.76 158.01L213.79 159.47L218.29 175.9L234.79 206.72Z" fill="white"/>
<path d="M238.33 124C240.16 127.83 238.2 135.88 233.89 137.5C227.24 139.99 228.14 121.5 228.14 121.5C228.14 121.5 236.12 119.37 238.33 124Z" fill="#263238"/>
<path d="M214.92 159.25C218.75 162.73 230.73 168.32 230.73 168.32C230.73 168.32 233.99 159.84 232.73 158.01C229.28 157.44 227.61 155.83 226.92 153.77C226.542 152.493 226.423 151.154 226.57 149.83C226.627 149.092 226.724 148.358 226.86 147.63L215.29 139C216.81 144.71 218.67 155.14 214.92 159.25Z" fill="#B97964"/>
<path opacity="0.2" d="M218 144.5C218.46 151.5 224.18 153.38 227 153.77C226.622 152.493 226.503 151.154 226.65 149.83L218 144.5Z" fill="black"/>
<path d="M217.19 146.11C218.395 147.894 220.152 149.232 222.192 149.921C224.231 150.609 226.441 150.609 228.48 149.92C231.132 149.075 233.366 147.256 234.73 144.83C234.92 144.506 235.094 144.172 235.25 143.83C238.08 137.21 238.98 125.63 231.98 121.29C230.441 120.323 228.68 119.766 226.865 119.672C225.05 119.577 223.24 119.948 221.609 120.75C219.978 121.552 218.578 122.757 217.544 124.252C216.51 125.746 215.875 127.481 215.7 129.29C214.84 137 214 141.53 217.19 146.11Z" fill="#B97964"/>
<path d="M227 133.42C226.85 134.03 227.13 134.6 227.54 134.67C227.95 134.74 228.37 134.29 228.48 133.67C228.59 133.05 228.34 132.49 227.93 132.42C227.52 132.35 227.1 132.78 227 133.42Z" fill="#263238"/>
<path d="M234.05 134.62C233.9 135.23 234.19 135.81 234.6 135.88C235.01 135.95 235.42 135.49 235.53 134.88C235.64 134.27 235.39 133.69 234.99 133.62C234.59 133.55 234.15 134 234.05 134.62Z" fill="#263238"/>
<path d="M231.75 134.55C232.17 136.587 232.87 138.555 233.83 140.4C233.345 140.627 232.816 140.744 232.28 140.744C231.744 140.744 231.215 140.627 230.73 140.4L231.75 134.55Z" fill="#A24E3F"/>
<path d="M225.18 130.75C225.246 130.772 225.317 130.776 225.386 130.762C225.454 130.748 225.518 130.716 225.57 130.67C225.902 130.343 226.305 130.098 226.747 129.954C227.19 129.81 227.66 129.771 228.12 129.84C228.167 129.852 228.216 129.854 228.265 129.847C228.313 129.84 228.359 129.823 228.401 129.798C228.443 129.773 228.479 129.74 228.508 129.701C228.537 129.662 228.558 129.617 228.57 129.57C228.582 129.523 228.584 129.474 228.577 129.425C228.57 129.377 228.553 129.331 228.528 129.289C228.503 129.247 228.47 129.211 228.431 129.182C228.392 129.153 228.347 129.132 228.3 129.12C227.719 129.015 227.122 129.052 226.558 129.226C225.995 129.4 225.481 129.706 225.06 130.12C224.992 130.189 224.953 130.283 224.953 130.38C224.953 130.477 224.992 130.571 225.06 130.64C225.093 130.684 225.133 130.721 225.18 130.75Z" fill="#263238"/>
<path d="M229.16 143.51C228.242 143.495 227.342 143.257 226.536 142.819C225.729 142.38 225.041 141.752 224.53 140.99C224.507 140.944 224.501 140.892 224.514 140.842C224.527 140.792 224.557 140.749 224.6 140.72C224.643 140.694 224.694 140.686 224.742 140.697C224.791 140.708 224.833 140.738 224.86 140.78C225.348 141.475 225.992 142.047 226.74 142.45C227.489 142.853 228.321 143.075 229.17 143.1C229.22 143.103 229.267 143.123 229.302 143.158C229.337 143.194 229.358 143.24 229.36 143.29C229.361 143.315 229.358 143.341 229.348 143.364C229.339 143.388 229.326 143.41 229.308 143.428C229.29 143.446 229.268 143.46 229.244 143.469C229.221 143.478 229.195 143.482 229.17 143.48L229.16 143.51Z" fill="#263238"/>
<path d="M237.5 132.7C237.567 132.739 237.643 132.76 237.72 132.76C237.813 132.73 237.892 132.666 237.94 132.581C237.988 132.496 238.002 132.395 237.98 132.3C237.827 131.729 237.54 131.203 237.141 130.766C236.743 130.329 236.245 129.994 235.69 129.79C235.643 129.776 235.594 129.772 235.546 129.777C235.498 129.782 235.451 129.796 235.408 129.82C235.365 129.843 235.328 129.874 235.297 129.912C235.267 129.95 235.244 129.993 235.23 130.04C235.207 130.134 235.22 130.233 235.266 130.318C235.313 130.403 235.389 130.468 235.48 130.5C235.911 130.673 236.297 130.943 236.605 131.29C236.914 131.638 237.138 132.052 237.26 132.5C237.283 132.549 237.316 132.592 237.358 132.627C237.399 132.661 237.448 132.686 237.5 132.7Z" fill="#263238"/>
<path d="M214.92 121.52C214.92 121.52 211.18 126.52 212.08 134.52C212.86 141.52 216.55 144.8 216.55 144.8C214.89 141.47 215.39 134.97 216.47 134.8C217.55 134.63 217.47 135.89 217.47 135.89C219.88 134.38 223.39 131.97 220.7 124.72C220.38 123.86 222.46 124.65 222.46 122.4C222.46 120.15 217.38 119.12 214.92 121.52Z" fill="#263238"/>
<path d="M211.28 135C211.832 136.882 213.109 138.469 214.83 139.41C217.12 140.64 218.83 138.72 218.67 136.27C218.52 134.08 217.16 130.74 214.67 130.55C212.18 130.36 210.62 132.68 211.28 135Z" fill="#B97964"/>
<path d="M230.73 168.32L229.37 162.03L214.9 155.43L221.78 164.42L230.73 168.32Z" fill="#A08135"/>
<path opacity="0.4" d="M230.73 168.32L229.37 162.03L214.9 155.43L221.78 164.42L230.73 168.32Z" fill="white"/>
<path d="M214.9 155.43L229.37 162.03L228.09 168.32L213.79 159.47L214.9 155.43Z" fill="#A08135"/>
<path opacity="0.3" d="M214.9 155.43L229.37 162.03L228.09 168.32L213.79 159.47L214.9 155.43Z" fill="white"/>
<path d="M230.73 168.32L230 161.88L229.69 155.43L232.76 158.01L230.73 168.32Z" fill="#A08135"/>
<path d="M233.56 167.57L230 161.88L229.69 155.43L232.76 158.01L233.56 167.57Z" fill="#A08135"/>
<path opacity="0.2" d="M233.56 167.57L230 161.88L229.69 155.43L232.76 158.01L233.56 167.57Z" fill="white"/>
<path d="M229.37 162.03L230 161.88L232.76 166.31L231.63 168.08L230.16 168.32L228.31 167.27L229.37 162.03Z" fill="#263238"/>
<path d="M230.57 198.84L230.16 168.32L231.63 168.08L235.67 195.39L234.79 206.72L230.57 198.84Z" fill="#263238"/>
<path opacity="0.2" d="M210.04 160.22L212.9 178.22L233.67 220.22L234.79 206.72L217.97 174.73L213.79 159.47L210.04 160.22Z" fill="black"/>
<path opacity="0.2" d="M232.76 158.01L237.36 173.57L232.76 234.55L243.5 174.32L236.44 158.39L232.76 158.01Z" fill="black"/>
<path opacity="0.2" d="M253.38 179.37C253.499 177.561 253.428 175.745 253.17 173.95C255.8 177.8 260.57 181.76 267.17 185.8C262.74 183.94 258.14 181.78 253.38 179.37Z" fill="black"/>
<path d="M225.42 116L230.42 117.84C230.648 117.924 230.848 118.071 230.996 118.264C231.144 118.458 231.234 118.689 231.255 118.931C231.276 119.174 231.227 119.417 231.115 119.633C231.002 119.849 230.831 120.028 230.62 120.15L229.49 120.79C228.833 121.169 228.053 121.273 227.32 121.08L223.25 120.02L220.14 118.3L221.62 116.83C222.109 116.344 222.726 116.008 223.399 115.861C224.072 115.714 224.773 115.762 225.42 116Z" fill="#263238"/>
<path d="M106.83 124C106.83 124 107.98 127.22 113.74 128.45C119.5 129.68 126.27 126.92 131.56 128.45C136.85 129.98 142 135.09 142 135.09L149 112.99C146.289 109.752 142.648 107.427 138.57 106.33C132.22 104.89 126.8 107.45 121.69 106.65C118.568 106.106 115.763 104.411 113.83 101.9L106.83 124Z" fill="#A08135"/>
<path opacity="0.3" d="M106.83 124C106.83 124 107.98 127.22 113.74 128.45C119.5 129.68 126.27 126.92 131.56 128.45C136.85 129.98 142 135.09 142 135.09L149 112.99C146.289 109.752 142.648 107.427 138.57 106.33C132.22 104.89 126.8 107.45 121.69 106.65C118.568 106.106 115.763 104.411 113.83 101.9L106.83 124Z" fill="white"/>
<path d="M120.29 114.65C119.817 116.158 119.802 117.773 120.246 119.29C120.69 120.807 121.573 122.159 122.785 123.174C123.996 124.19 125.481 124.824 127.053 124.996C128.624 125.168 130.211 124.87 131.614 124.141C133.016 123.412 134.171 122.284 134.933 120.899C135.695 119.514 136.03 117.934 135.894 116.359C135.759 114.784 135.16 113.284 134.174 112.049C133.187 110.814 131.856 109.899 130.35 109.42C129.346 109.101 128.289 108.982 127.239 109.073C126.19 109.163 125.168 109.459 124.234 109.945C123.299 110.431 122.469 111.097 121.792 111.904C121.116 112.712 120.605 113.645 120.29 114.65Z" fill="white"/>
<g opacity="0.4">
<path d="M131.33 112.88L129 122.62L125.71 121.82L127.48 114.56L125.82 114.15L126.42 111.68L131.33 112.88Z" fill="black"/>
</g>
<path d="M131.799 166.939L132.609 167.195L149.849 112.55L149.039 112.294L131.799 166.939Z" fill="#263238"/>
<path opacity="0.2" d="M131.799 166.939L132.609 167.195L149.849 112.55L149.039 112.294L131.799 166.939Z" fill="white"/>
<path d="M148.92 112.25C148.897 112.32 148.888 112.393 148.893 112.466C148.899 112.539 148.919 112.611 148.953 112.676C148.986 112.741 149.032 112.799 149.089 112.846C149.145 112.893 149.21 112.928 149.28 112.95C149.352 112.984 149.431 113.001 149.511 113.002C149.591 113.003 149.67 112.986 149.743 112.954C149.816 112.922 149.881 112.874 149.934 112.814C149.987 112.755 150.027 112.685 150.05 112.608C150.074 112.532 150.081 112.452 150.071 112.373C150.061 112.294 150.035 112.217 149.993 112.149C149.951 112.081 149.896 112.023 149.83 111.978C149.764 111.934 149.689 111.903 149.61 111.89C149.541 111.868 149.469 111.86 149.397 111.867C149.325 111.873 149.254 111.894 149.19 111.927C149.126 111.96 149.069 112.006 149.023 112.062C148.977 112.117 148.942 112.181 148.92 112.25Z" fill="#263238"/>
<path opacity="0.3" d="M148.92 112.25C148.897 112.32 148.888 112.393 148.893 112.466C148.899 112.539 148.919 112.611 148.953 112.676C148.986 112.741 149.032 112.799 149.089 112.846C149.145 112.893 149.21 112.928 149.28 112.95C149.352 112.984 149.431 113.001 149.511 113.002C149.591 113.003 149.67 112.986 149.743 112.954C149.816 112.922 149.881 112.874 149.934 112.814C149.987 112.755 150.027 112.685 150.05 112.608C150.074 112.532 150.081 112.452 150.071 112.373C150.061 112.294 150.035 112.217 149.993 112.149C149.951 112.081 149.896 112.023 149.83 111.978C149.764 111.934 149.689 111.903 149.61 111.89C149.541 111.868 149.469 111.86 149.397 111.867C149.325 111.873 149.254 111.894 149.19 111.927C149.126 111.96 149.069 112.006 149.023 112.062C148.977 112.117 148.942 112.181 148.92 112.25Z" fill="white"/>
<path d="M335.85 170.57C335.85 170.57 336.92 172 339.99 171.74C343.06 171.48 345.99 169.06 348.89 169C351.068 169.132 353.195 169.721 355.13 170.73L355.23 158.62C353.376 157.419 351.198 156.815 348.99 156.89C345.6 157.14 343.28 159.25 340.61 159.63C338.965 159.841 337.3 159.423 335.95 158.46L335.85 170.57Z" fill="#A08135"/>
<path opacity="0.3" d="M335.85 170.57C335.85 170.57 336.92 172 339.99 171.74C343.06 171.48 345.99 169.06 348.89 169C351.068 169.132 353.195 169.721 355.13 170.73L355.23 158.62C353.376 157.419 351.198 156.815 348.99 156.89C345.6 157.14 343.28 159.25 340.61 159.63C338.965 159.841 337.3 159.423 335.95 158.46L335.85 170.57Z" fill="white"/>
<path d="M341.15 163.84C341.142 164.669 341.38 165.482 341.835 166.176C342.289 166.869 342.939 167.412 343.702 167.736C344.465 168.061 345.307 168.151 346.122 167.996C346.936 167.842 347.687 167.449 348.278 166.867C348.869 166.286 349.274 165.542 349.443 164.731C349.611 163.919 349.535 163.075 349.223 162.307C348.912 161.538 348.38 160.879 347.694 160.414C347.008 159.948 346.199 159.696 345.37 159.69C344.26 159.682 343.193 160.114 342.402 160.892C341.611 161.67 341.161 162.731 341.15 163.84Z" fill="white"/>
<g opacity="0.4">
<path d="M346.86 161.25V166.48H345.09V162.57H344.19V161.24L346.86 161.25Z" fill="black"/>
</g>
<path d="M354.88 188.239L355.33 188.243L355.576 158.294L355.126 158.29L354.88 188.239Z" fill="#263238"/>
<path opacity="0.2" d="M354.88 188.239L355.33 188.243L355.576 158.294L355.126 158.29L354.88 188.239Z" fill="white"/>
<path d="M355.08 158.26C355.08 158.337 355.111 158.411 355.165 158.465C355.219 158.519 355.293 158.55 355.37 158.55C355.447 158.55 355.521 158.519 355.575 158.465C355.629 158.411 355.66 158.337 355.66 158.26C355.661 158.222 355.655 158.185 355.642 158.15C355.628 158.115 355.608 158.083 355.582 158.055C355.555 158.028 355.524 158.007 355.49 157.992C355.455 157.978 355.418 157.97 355.38 157.97C355.303 157.972 355.229 158.003 355.174 158.057C355.118 158.111 355.085 158.183 355.08 158.26Z" fill="#263238"/>
<path opacity="0.3" d="M355.08 158.26C355.08 158.337 355.111 158.411 355.165 158.465C355.219 158.519 355.293 158.55 355.37 158.55C355.447 158.55 355.521 158.519 355.575 158.465C355.629 158.411 355.66 158.337 355.66 158.26C355.661 158.222 355.655 158.185 355.642 158.15C355.628 158.115 355.608 158.083 355.582 158.055C355.555 158.028 355.524 158.007 355.49 157.992C355.455 157.978 355.418 157.97 355.38 157.97C355.303 157.972 355.229 158.003 355.174 158.057C355.118 158.111 355.085 158.183 355.08 158.26Z" fill="white"/>
<path d="M317.49 156C318.81 154.86 320.56 154.73 321.39 155.7L328.31 163.77L323.53 167.87L316.61 159.81C315.77 158.82 316.17 157.11 317.49 156Z" fill="#263238"/>
<path d="M323.53 167.85C324.36 168.85 326.11 168.69 327.43 167.56C328.75 166.43 329.15 164.72 328.31 163.75C327.47 162.78 325.73 162.91 324.41 164.04C323.09 165.17 322.7 166.88 323.53 167.85Z" fill="#263238"/>
<path opacity="0.1" d="M323.53 167.85C324.36 168.85 326.11 168.69 327.43 167.56C328.75 166.43 329.15 164.72 328.31 163.75C327.47 162.78 325.73 162.91 324.41 164.04C323.09 165.17 322.7 166.88 323.53 167.85Z" fill="white"/>
<path d="M329.36 184.29C329.36 184.29 329.57 171.49 329.36 170.29C329.15 169.09 326.58 165.84 326.58 165.84C326.356 165.746 326.106 165.738 325.876 165.815C325.646 165.892 325.452 166.05 325.33 166.26C326.294 167.638 327.131 169.101 327.83 170.63C328.11 171.71 327.83 184.32 327.83 184.32L329.36 184.29Z" fill="#263238"/>
<path opacity="0.3" d="M329.36 184.29C329.36 184.29 329.57 171.49 329.36 170.29C329.15 169.09 326.58 165.84 326.58 165.84C326.356 165.746 326.106 165.738 325.876 165.815C325.646 165.892 325.452 166.05 325.33 166.26C326.294 167.638 327.131 169.101 327.83 170.63C328.11 171.71 327.83 184.32 327.83 184.32L329.36 184.29Z" fill="white"/>
<path d="M395.85 189.57V184.29H307.95L246.3 210.24V215.52H287.93L297 406.32H287.55V411.16H268.43V416H316.35H379.47V411.16H361.92V406.32H346.8L357.87 205.56L395.85 189.57Z" fill="#A08135"/>
<path opacity="0.2" d="M395.85 184.29H307.95V189.58H395.85V184.29Z" fill="black"/>
<path opacity="0.4" d="M307.95 189.57L246.3 215.52V210.24L307.95 184.29V189.57Z" fill="black"/>
<path opacity="0.5" d="M358.35 196.77H313.35L287.55 207.57L287.93 215.52H246.3L307.95 189.57H395.85L357.87 205.56L358.35 196.77Z" fill="black"/>
<path opacity="0.4" d="M346.8 406.32H313.35V196.77H358.35L346.8 406.32Z" fill="white"/>
<path opacity="0.2" d="M313.35 406.32H297L287.55 207.57L313.35 196.77V406.32Z" fill="white"/>
<path d="M379.47 411.16H318.38V416H379.47V411.16Z" fill="#A08135"/>
<path opacity="0.1" d="M361.91 406.32H316.35V411.16H361.91V406.32Z" fill="black"/>
<path opacity="0.2" d="M318.38 411.16H268.43V416H318.38V411.16Z" fill="black"/>
<path opacity="0.3" d="M316.35 406.32H287.55V411.16H316.35V406.32Z" fill="black"/>
<path opacity="0.3" d="M321.08 406.32L323.09 207.4H348.92L339.13 406.32H321.08Z" fill="white"/>
<path opacity="0.3" d="M323.06 210.55H345.54L348.92 207.4H323.09L323.06 210.55Z" fill="#263238"/>
<path opacity="0.5" d="M339.13 406.32L348.92 207.4L345.54 210.55L335.99 406.32H339.13Z" fill="#263238"/>
</svg>
