<svg width="500" height="334" viewBox="0 0 500 334" fill="none" xmlns="http://www.w3.org/2000/svg">
<path d="M241.02 226.873C241.02 226.873 243.26 225.713 245.24 226.153C247.22 226.593 254.413 231.273 254.413 231.273L264.507 229.387L267.767 247.533L241.02 255.94V226.873Z" fill="#FFBF9D"/>
<path d="M223.333 232.207C223.333 232.207 229.467 231.92 231.333 230.98C233.2 230.04 237.68 226.08 238.62 226.153C239.56 226.227 242.947 226.873 242.947 226.873L241.573 230.98C241.573 230.98 248.353 235.093 250.373 236.607C252.393 238.12 258.74 244.9 259.04 246.56C259.34 248.22 258.827 250.167 258.033 250.813C257.24 251.46 254.353 250.147 254.353 250.147C254.463 250.659 254.461 251.189 254.346 251.7C254.231 252.211 254.006 252.691 253.687 253.107C252.607 254.547 250.08 254.04 250.08 254.04C250.08 254.04 249.86 256.42 248.707 256.853C247.553 257.287 244.96 255.987 244.96 255.987C244.96 255.987 244.173 257.987 243.233 258.227C242.293 258.467 239.62 256.853 239.62 256.853C239.62 256.853 225.74 247.567 223.147 246.34L221.953 248L223.333 232.207Z" fill="#AE7461"/>
<path d="M244.987 256C244.933 256 244.9 255.8 244.78 255.494C244.612 255.099 244.418 254.716 244.2 254.347C243.835 253.837 243.535 253.284 243.307 252.7C243.817 253.089 244.226 253.594 244.5 254.174C244.738 254.561 244.911 254.984 245.013 255.427C245.087 255.787 245.027 256 244.987 256Z" fill="#6F4439"/>
<path d="M249.78 254.607C249.244 253.916 248.758 253.188 248.327 252.427C247.533 251.227 246.693 250.427 246.753 250.354C247.529 250.804 248.171 251.453 248.613 252.234C249.152 252.942 249.549 253.748 249.78 254.607Z" fill="#6F4439"/>
<path d="M254.413 250.447C254.307 250.447 253.987 249.22 253.187 247.874C252.387 246.527 251.473 245.634 251.547 245.554C252.334 246.129 252.995 246.861 253.488 247.703C253.981 248.544 254.296 249.479 254.413 250.447Z" fill="#6F4439"/>
<path d="M251.033 241.44C251.481 242.694 251.541 244.052 251.207 245.34C251.078 244.045 251.02 242.743 251.033 241.44Z" fill="#6F4439"/>
<path d="M234.24 234.947C234.24 234.947 236.04 229.18 236.693 228.46C237.347 227.74 243.36 226.153 243.36 226.153L245.227 230.98L243.893 232.4L241.013 232.207C241.013 232.207 239.213 236.967 234.24 234.947Z" fill="#FFBF9D"/>
<path d="M223.173 246.36C223.173 246.36 222.347 246.994 223.173 248.507C224 250.02 226.233 248.94 226.953 248.507C226.953 248.507 225.873 251.034 227.247 251.84C228.177 252.325 229.23 252.524 230.273 252.414C230.273 252.414 230.2 253.934 232.147 254.94C234.093 255.947 234.6 254.94 234.6 254.94C234.6 254.94 234.813 257.467 237.053 257.68C239.293 257.894 240.073 257.127 240.073 257.127L239.073 255.64C239.073 255.64 240.367 252.974 239.36 251.84C239.013 251.492 238.596 251.221 238.136 251.046C237.676 250.871 237.184 250.797 236.693 250.827C236.693 250.827 237.133 248.487 235.847 247.834C235.559 247.655 235.237 247.54 234.902 247.496C234.566 247.452 234.225 247.481 233.902 247.58C233.578 247.679 233.28 247.847 233.026 248.071C232.773 248.295 232.571 248.571 232.433 248.88C232.433 248.88 232.293 246.314 230.433 246.374C229.35 246.388 228.315 246.823 227.547 247.587L223.173 246.36Z" fill="#FFBF9D"/>
<path d="M232.433 248.867C232.275 249.559 231.983 250.214 231.573 250.793C231.265 251.431 230.837 252.004 230.313 252.48C230.549 251.817 230.874 251.189 231.28 250.613C231.586 249.983 231.974 249.396 232.433 248.867Z" fill="#FF9A6C"/>
<path d="M236.74 251.14C236.268 252.562 235.407 253.824 234.253 254.78C234.598 254.129 235.004 253.513 235.467 252.94C235.835 252.303 236.262 251.7 236.74 251.14Z" fill="#FF9A6C"/>
<path d="M315.333 109.494C314.002 109.682 312.647 109.367 311.536 108.61C310.424 107.852 309.635 106.707 309.323 105.399C309.011 104.091 309.199 102.713 309.849 101.535C310.5 100.358 311.566 99.4659 312.84 99.0335C312.001 98.2031 311.445 97.1298 311.25 95.9657C311.054 94.8016 311.23 93.6056 311.752 92.547C312.274 91.4883 313.116 90.6206 314.158 90.0666C315.2 89.5127 316.39 89.3005 317.56 89.4602C317.585 88.2968 317.912 87.1599 318.508 86.1606C319.104 85.1613 319.949 84.3337 320.961 83.7587C321.973 83.1836 323.116 82.8809 324.28 82.88C325.444 82.8791 326.587 83.1801 327.6 83.7535C328.889 82.6546 330.51 82.0211 332.203 81.9546C333.896 81.8881 335.562 82.3925 336.933 83.3869C338.062 83.1552 339.235 83.2919 340.28 83.7769C341.325 84.2619 342.187 85.0695 342.738 86.081C343.29 87.0924 343.502 88.2542 343.344 89.3954C343.186 90.5366 342.666 91.5969 341.86 92.4202" fill="#263238"/>
<path d="M314.547 110.274C314.894 104.521 317.394 99.1091 321.549 95.1155C325.705 91.1219 331.211 88.8387 336.973 88.7202H338.16C350.98 89.2135 357.727 100.367 356.88 113.167L357.647 158.834L326.5 170L326.227 153.554C326.227 153.554 313.88 151.887 313.48 139.587C313.287 133.634 313.88 121.367 314.547 110.274Z" fill="#FFBF9D"/>
<path d="M326.127 153.52C331.833 153.402 337.386 151.651 342.127 148.474C342.127 148.474 338.513 157.407 326.213 156.554L326.127 153.52Z" fill="#FF9A6C"/>
<path d="M318 121.394C318.003 121.852 318.186 122.29 318.509 122.615C318.831 122.941 319.269 123.127 319.727 123.134C319.951 123.147 320.175 123.116 320.386 123.041C320.598 122.966 320.793 122.85 320.958 122.699C321.124 122.548 321.258 122.365 321.352 122.162C321.447 121.958 321.499 121.738 321.507 121.514C321.502 121.056 321.318 120.618 320.996 120.294C320.674 119.969 320.238 119.782 319.78 119.774C319.556 119.76 319.332 119.792 319.12 119.866C318.909 119.941 318.714 120.057 318.548 120.208C318.382 120.359 318.248 120.542 318.154 120.745C318.06 120.949 318.008 121.169 318 121.394Z" fill="#263238"/>
<path d="M317.333 116.234C317.56 116.46 318.867 115.447 320.76 115.414C322.653 115.38 324.053 116.3 324.253 116.08C324.353 115.974 324.127 115.56 323.513 115.134C322.682 114.584 321.702 114.305 320.707 114.334C319.724 114.352 318.772 114.681 317.987 115.274C317.393 115.72 317.207 116.134 317.333 116.234Z" fill="#263238"/>
<path d="M335.233 121.394C335.237 121.852 335.419 122.29 335.742 122.615C336.065 122.941 336.502 123.127 336.96 123.134C337.184 123.147 337.408 123.116 337.62 123.041C337.831 122.966 338.026 122.85 338.192 122.699C338.358 122.548 338.492 122.365 338.586 122.162C338.68 121.958 338.732 121.738 338.74 121.514C338.735 121.056 338.552 120.618 338.229 120.294C337.907 119.969 337.471 119.782 337.013 119.774C336.789 119.76 336.565 119.792 336.353 119.866C336.142 119.941 335.947 120.057 335.782 120.208C335.616 120.359 335.482 120.542 335.388 120.745C335.293 120.949 335.241 121.169 335.233 121.394Z" fill="#263238"/>
<path d="M335.907 116.213C336.133 116.433 337.447 115.42 339.333 115.387C341.22 115.353 342.667 116.273 342.833 116.053C342.927 115.947 342.7 115.54 342.087 115.107C341.254 114.561 340.275 114.282 339.28 114.307C338.297 114.326 337.345 114.655 336.56 115.247C336 115.693 335.8 116.113 335.907 116.213Z" fill="#263238"/>
<path d="M329.333 130.373C329.333 130.267 328.16 130.087 326.253 129.88C325.767 129.84 325.307 129.753 325.22 129.427C325.167 128.928 325.27 128.425 325.513 127.987C325.958 126.813 326.402 125.58 326.847 124.287C328.72 119.007 330.067 114.673 329.853 114.6C329.64 114.527 328 118.747 326.093 124L324.8 127.727C324.508 128.315 324.432 128.988 324.587 129.627C324.663 129.792 324.776 129.938 324.916 130.054C325.057 130.169 325.223 130.251 325.4 130.293C325.667 130.365 325.943 130.399 326.22 130.393C328.14 130.5 329.333 130.48 329.333 130.373Z" fill="#263238"/>
<path d="M335.207 109.787C335.467 110.26 337.073 109.707 339.067 109.6C341.06 109.494 342.747 109.794 342.92 109.294C342.993 109.054 342.633 108.627 341.907 108.26C340.97 107.815 339.934 107.619 338.9 107.694C337.863 107.752 336.862 108.088 336 108.667C335.373 109.094 335.087 109.56 335.207 109.787Z" fill="#263238"/>
<path d="M316.947 109.547C317.353 109.967 318.907 109.493 320.787 109.433C322.667 109.373 324.253 109.647 324.613 109.193C324.767 108.973 324.507 108.527 323.807 108.153C322.84 107.655 321.759 107.425 320.673 107.487C319.595 107.517 318.545 107.837 317.633 108.413C316.98 108.893 316.767 109.333 316.947 109.547Z" fill="#263238"/>
<path d="M315.613 104.6C315.613 104.6 318.707 96.8336 322.387 94.9602C326.84 92.6869 328.873 97.5869 333.14 96.2936C337.407 95.0002 341.653 92.8336 346.1 96.0602C350.967 99.5869 348.767 102.18 349.18 107.634C350.833 129.74 355 135.92 355.94 125.467C356.047 124.327 359.193 123.354 359.567 118.514C360.047 112.247 360.133 104.64 358.647 100.227C357.393 96.5069 355.207 93.9669 351.313 91.1936C345.18 86.8136 336.88 86.8869 331.253 87.5669C325.627 88.2469 314.907 94.9669 315.613 104.6Z" fill="#263238"/>
<path d="M355.147 125.16C355.151 124.71 355.247 124.265 355.429 123.853C355.61 123.44 355.873 123.069 356.202 122.761C356.531 122.453 356.919 122.215 357.343 122.062C357.767 121.908 358.217 121.842 358.667 121.867C360.96 122.034 363.547 123.287 363.487 128.034C363.393 136.454 354.96 134.614 354.947 134.374C354.933 134.134 355.08 128.667 355.147 125.16Z" fill="#FFBF9D"/>
<path d="M356.84 131.227C356.88 131.227 356.987 131.334 357.233 131.447C357.581 131.602 357.975 131.616 358.333 131.487C359.227 131.167 359.987 129.767 360.047 128.247C360.079 127.527 359.947 126.808 359.66 126.147C359.585 125.883 359.447 125.641 359.258 125.442C359.069 125.244 358.834 125.094 358.573 125.007C358.405 124.96 358.225 124.973 358.065 125.045C357.906 125.117 357.776 125.243 357.7 125.4C357.587 125.634 357.64 125.8 357.593 125.814C357.547 125.827 357.413 125.674 357.487 125.327C357.533 125.118 357.651 124.931 357.82 124.8C358.055 124.631 358.346 124.557 358.633 124.594C358.98 124.667 359.301 124.828 359.567 125.062C359.834 125.295 360.035 125.593 360.153 125.927C360.503 126.66 360.668 127.468 360.633 128.28C360.56 129.974 359.673 131.554 358.453 131.887C358.228 131.949 357.991 131.96 357.761 131.92C357.53 131.879 357.311 131.788 357.12 131.654C356.853 131.434 356.813 131.247 356.84 131.227Z" fill="#FF9A6C"/>
<path d="M354.667 108.86C353.651 109.716 352.439 110.307 351.14 110.58C349.807 110.734 348.3 110.014 348.053 108.714C347.94 108.127 348.053 107.447 347.68 107C347.307 106.554 346.347 106.654 345.68 106.747C344.452 106.867 343.22 106.56 342.19 105.879C341.161 105.198 340.397 104.184 340.027 103.007C339.42 103.954 337.967 103.947 337.007 103.354C336.047 102.76 335.427 101.78 334.667 100.954C333.907 100.127 332.86 99.3871 331.753 99.5671C331.133 99.6671 330.56 100.047 329.933 100.007C328.827 99.9337 328.26 98.6737 328.067 97.5537C327.873 96.4337 327.72 95.1871 326.773 94.6071C325.827 94.0271 324.773 94.4137 323.767 94.6071C322.76 94.8004 321.433 94.567 321.153 93.5737C321.105 93.308 321.11 93.0351 321.17 92.7716C321.229 92.508 321.342 92.2593 321.5 92.0404C322.163 91.0106 323.154 90.2341 324.313 89.8362C325.472 89.4384 326.73 89.4422 327.887 89.8471C328.273 88.4385 329.068 87.176 330.172 86.2192C331.275 85.2624 332.638 84.6542 334.087 84.4716C335.536 84.2889 337.007 84.54 338.313 85.193C339.619 85.846 340.703 86.8717 341.427 88.1404C342.303 87.3187 343.364 86.7198 344.521 86.3942C345.678 86.0687 346.895 86.026 348.072 86.2698C349.248 86.5136 350.349 87.0367 351.281 87.795C352.213 88.5534 352.949 89.5247 353.427 90.6271C354.452 90.3342 355.541 90.3497 356.558 90.6715C357.575 90.9933 358.474 91.6072 359.145 92.4367C359.815 93.2662 360.226 94.2746 360.327 95.3363C360.428 96.3979 360.215 97.4659 359.713 98.407C361.247 99.2404 362.573 100.714 362.64 102.454C362.707 104.194 361.04 105.967 359.353 105.54C359.719 106.22 359.81 107.014 359.607 107.758C359.403 108.502 358.922 109.14 358.261 109.539C357.601 109.938 356.813 110.068 356.059 109.902C355.306 109.736 354.645 109.287 354.213 108.647" fill="#263238"/>
<path d="M327.28 92.3135C327.27 92.3663 327.27 92.4206 327.28 92.4735C327.28 92.5735 327.28 92.7268 327.34 92.9201C327.471 93.4891 327.697 94.0321 328.007 94.5268C328.484 95.3158 329.136 95.9842 329.913 96.4801C330.939 97.154 332.156 97.4747 333.38 97.3935L333.233 97.2068C332.994 97.9779 333.071 98.8123 333.447 99.5268C333.838 100.275 334.337 100.963 334.927 101.567C335.215 101.913 335.536 102.23 335.887 102.513C336.288 102.772 336.745 102.932 337.22 102.98C337.714 103.038 338.215 102.974 338.68 102.796C339.144 102.617 339.559 102.328 339.887 101.953L339.573 101.873C339.707 102.744 340.022 103.577 340.497 104.319C340.972 105.061 341.598 105.695 342.333 106.18C343.145 106.76 344.123 107.06 345.12 107.033C346.053 106.964 346.968 106.739 347.827 106.367L347.6 106.273C348.058 107.282 348.761 108.16 349.647 108.827C350.052 109.162 350.526 109.402 351.036 109.53C351.546 109.658 352.078 109.671 352.593 109.567C353.471 109.354 354.269 108.892 354.889 108.235C355.509 107.578 355.925 106.755 356.087 105.867L355.9 105.96C356.796 106.412 357.82 106.541 358.8 106.327C359.53 106.172 360.215 105.85 360.8 105.387C361.163 105.091 361.474 104.738 361.72 104.34C361.803 104.2 361.872 104.053 361.927 103.9C361.606 104.426 361.196 104.891 360.713 105.273C360.137 105.7 359.471 105.992 358.767 106.127C357.835 106.31 356.869 106.171 356.027 105.733L355.867 105.647V105.827C355.704 106.66 355.302 107.427 354.71 108.036C354.118 108.644 353.362 109.067 352.533 109.253C352.065 109.343 351.582 109.327 351.121 109.206C350.659 109.085 350.231 108.862 349.867 108.553C349.036 107.915 348.377 107.082 347.947 106.127L347.88 105.973L347.72 106.033C346.896 106.383 346.02 106.592 345.127 106.653C344.209 106.675 343.308 106.399 342.56 105.867C341.866 105.407 341.276 104.808 340.826 104.108C340.376 103.408 340.076 102.622 339.947 101.8L339.887 101.407L339.627 101.72C339.334 102.052 338.965 102.307 338.551 102.464C338.138 102.621 337.692 102.674 337.253 102.62C336.831 102.586 336.424 102.448 336.067 102.22C335.734 101.957 335.43 101.66 335.16 101.333C334.585 100.755 334.095 100.097 333.707 99.3801C333.534 99.0618 333.425 98.7124 333.387 98.3521C333.35 97.9917 333.383 97.6274 333.487 97.2801L333.547 97.0801H333.34C332.168 97.1756 330.998 96.8853 330.007 96.2535C329.245 95.7912 328.597 95.1621 328.113 94.4135C327.716 93.7671 327.434 93.0565 327.28 92.3135Z" fill="#455A64"/>
<path d="M335.853 131.027C335.553 131.06 335.9 133.027 334.447 134.754C332.993 136.48 330.853 136.614 330.887 136.894C330.887 137.027 331.42 137.2 332.32 137.067C333.484 136.876 334.544 136.281 335.313 135.387C336.053 134.529 336.43 133.418 336.367 132.287C336.293 131.44 336 130.987 335.853 131.027Z" fill="#263238"/>
<path d="M258.7 227.84C259.767 227.413 303.407 222.1 303.407 222.1L317.7 210L316.367 245.033L264.453 250.04L258.7 227.84Z" fill="#A08135"/>
<path opacity="0.3" d="M311.38 215.333C310.953 215.547 307.42 218.667 307.42 218.667L308.5 245.647L311.38 215.333Z" fill="black"/>
<path d="M371.407 278.8H311.9C311.9 278.8 315.047 295.587 316.213 303.327C316.868 307.796 317.828 312.216 319.087 316.554H372.987C372.987 316.554 376.987 306.8 377.707 300.554C378.427 294.307 371.407 278.8 371.407 278.8Z" fill="#263238"/>
<path d="M307.46 280.827C307.46 280.827 305.8 299.967 307.46 316.553H328.08V301.267L307.46 280.827Z" fill="#263238"/>
<path d="M318.913 187L325.333 172.96L326.133 164.294C326.133 164.294 338.427 156.56 344.267 153.627C348.719 151.51 353.292 149.653 357.96 148.067V156.267L318.913 187Z" fill="#EBEBEB"/>
<path d="M372.52 258.727C372.52 258.727 376.007 211.92 376.24 208.44C376.24 208.44 378.3 183.427 373.853 173.9C369.407 164.373 359.473 156 359.473 156L358.56 151L339.147 163.233L330.18 171.04C327.098 174.334 324.268 177.855 321.713 181.573C319.16 185.1 316.333 189.633 315.047 195.333C314.587 197.42 309.24 222.34 309.087 239.707C309.087 239.707 308.26 254.86 307.387 263.447C306.307 274.067 304.653 298.287 305.013 312.64L367.913 310.713C383.46 308.347 380.727 306.8 380.727 306.8L372.52 258.727Z" fill="#A08135"/>
<path d="M357.953 156.267C357.953 156.267 357.807 156.34 357.513 156.46L356.233 157C355.687 157.267 355.02 157.614 354.233 158.02C353.447 158.427 352.587 158.967 351.66 159.627C346.509 163.256 341.862 167.551 337.84 172.4L337.8 172.44H337.747L331.713 173.547L331.847 173.4C331.747 176.2 331.653 179.147 331.547 182.187V182.26L331.493 182.307C328.284 185.31 325.317 188.563 322.62 192.034C321.497 193.493 320.479 195.03 319.573 196.634L319.247 197.227L318.993 197.847C318.817 198.255 318.666 198.674 318.54 199.1C318.273 199.954 318.007 200.8 317.787 201.654C316.853 205.054 316.087 208.374 315.367 211.534C313.933 217.86 312.74 223.574 311.753 228.38C309.78 238 308.667 244 308.667 244C308.69 243.634 308.734 243.269 308.8 242.907C308.913 242.194 309.093 241.147 309.333 239.794C309.82 237.094 310.56 233.194 311.513 228.38C312.467 223.567 313.64 217.84 315.053 211.507C315.767 208.34 316.527 205.02 317.46 201.607C317.68 200.754 317.947 199.9 318.213 199.04C318.341 198.602 318.497 198.172 318.68 197.754L318.94 197.087L319.273 196.487C320.181 194.859 321.206 193.3 322.34 191.82C325.049 188.331 328.034 185.065 331.267 182.054L331.213 182.174C331.32 179.127 331.427 176.174 331.527 173.38V173.254H331.653L337.687 172.167L337.6 172.22C341.656 167.366 346.349 163.083 351.553 159.487C352.493 158.82 353.4 158.367 354.16 157.907C354.92 157.447 355.633 157.174 356.16 156.92L357.493 156.427C357.644 156.365 357.797 156.312 357.953 156.267Z" fill="#263238"/>
<path d="M336.833 193.253L337.587 255.72L328.08 316.553H353.153C353.153 316.553 364.553 270.367 367.207 260.653C369.78 251.233 373.64 203.787 373.987 201.453C374.12 200.54 376.84 184.153 368.833 176.427" fill="#A08135"/>
<path d="M368.833 176.427L369.36 176.947C369.86 177.472 370.317 178.036 370.727 178.633C372.278 180.961 373.343 183.578 373.86 186.327C374.695 190.669 374.857 195.115 374.34 199.507C373.96 202.067 373.773 204.8 373.493 207.72C373.213 210.64 372.953 213.72 372.66 216.94C372.06 223.407 371.387 230.487 370.567 238.087C370.147 241.887 369.713 245.82 369.18 249.853C368.714 254.026 367.977 258.163 366.973 262.24C362.78 278.907 358.173 297.287 353.32 316.6L353.287 316.727H327.873L327.907 316.527C331.427 294.093 334.673 273.38 337.447 255.693C337.247 236.78 337.073 221.167 336.96 210.273C336.913 204.833 336.873 200.573 336.847 197.667C336.847 196.22 336.847 195.113 336.847 194.333C336.847 193.553 336.847 193.2 336.847 193.2C336.847 193.2 336.847 193.587 336.887 194.333C336.927 195.08 336.92 196.193 336.947 197.667C336.987 200.573 337.053 204.833 337.133 210.267C337.28 221.16 337.493 236.773 337.747 255.687C334.993 273.373 331.747 294.087 328.267 316.527L328.1 316.333H353.173L353.007 316.467L366.667 262.153C367.672 258.093 368.412 253.971 368.88 249.813C369.42 245.78 369.86 241.853 370.287 238.06C371.113 230.46 371.8 223.393 372.413 216.92C372.72 213.687 373.007 210.607 373.28 207.7C373.553 204.793 373.767 202.027 374.147 199.487C374.679 195.113 374.539 190.685 373.733 186.353C373.226 183.614 372.184 181.002 370.667 178.667C370.265 178.067 369.82 177.499 369.333 176.967L368.833 176.427Z" fill="#263238"/>
<path d="M350.093 261.867C349.433 261.741 348.786 261.553 348.16 261.307C346.98 260.9 345.367 260.287 343.633 259.52C341.9 258.754 340.36 257.96 339.267 257.36C338.663 257.062 338.09 256.707 337.553 256.3C338.184 256.531 338.795 256.812 339.38 257.14C340.5 257.687 342.047 258.434 343.773 259.2C345.5 259.967 347.107 260.614 348.247 261.074C348.882 261.289 349.5 261.554 350.093 261.867Z" fill="#263238"/>
<path d="M307.167 266C307.159 265.945 307.159 265.889 307.167 265.833C307.167 265.707 307.167 265.553 307.167 265.36C307.167 264.907 307.22 264.293 307.26 263.52C307.367 261.893 307.513 259.593 307.693 256.767C308.08 251.067 308.627 243.193 309.393 234.507C310.16 225.82 311.053 217.973 311.773 212.307C312.14 209.473 312.44 207.18 312.68 205.6C312.793 204.833 312.887 204.227 312.953 203.78C312.953 203.587 313.007 203.433 313.027 203.307C313.006 203.302 312.988 203.289 312.976 203.272C312.963 203.255 312.958 203.233 312.961 203.212C312.963 203.191 312.973 203.172 312.989 203.158C313.005 203.144 313.025 203.136 313.047 203.136C313.068 203.136 313.088 203.144 313.104 203.158C313.12 203.172 313.13 203.191 313.133 203.212C313.135 203.233 313.13 203.255 313.118 203.272C313.105 203.289 313.087 203.302 313.067 203.307C313.067 203.433 313.067 203.593 313.02 203.78C312.967 204.227 312.9 204.84 312.813 205.613C312.62 207.227 312.353 209.513 312.02 212.327C311.353 218 310.513 225.847 309.74 234.533C308.967 243.22 308.407 251.08 307.94 256.78C307.713 259.607 307.527 261.9 307.4 263.52C307.327 264.293 307.273 264.907 307.233 265.353C307.233 265.547 307.2 265.707 307.18 265.833C307.183 265.889 307.179 265.945 307.167 266Z" fill="#263238"/>
<path d="M357.953 168.547C357.306 166.824 356.517 165.158 355.593 163.567C354.563 162.045 353.406 160.613 352.133 159.287C352.605 159.563 353.032 159.909 353.4 160.313C355.305 162.169 356.737 164.455 357.573 166.98C357.777 167.48 357.905 168.008 357.953 168.547Z" fill="#263238"/>
<path d="M313.7 246.153C313.7 246.153 313.787 246.307 313.767 246.607C313.722 247.037 313.529 247.438 313.22 247.74C312.989 247.973 312.696 248.135 312.376 248.207C312.056 248.279 311.722 248.258 311.413 248.147C311.044 248.02 310.719 247.789 310.48 247.48C310.223 247.147 310.091 246.734 310.107 246.313C310.106 245.79 310.275 245.28 310.587 244.86C310.739 244.659 310.941 244.5 311.173 244.4C311.413 244.307 311.587 244.267 311.787 244.2H311.833C312.261 244.193 312.681 244.313 313.04 244.547C313.308 244.746 313.504 245.027 313.6 245.347C313.708 245.603 313.742 245.885 313.7 246.16C313.66 246.16 313.627 245.867 313.433 245.407C313.325 245.137 313.14 244.905 312.9 244.74C312.576 244.555 312.205 244.47 311.833 244.493H311.88C311.693 244.553 311.467 244.627 311.3 244.693C311.122 244.779 310.969 244.907 310.853 245.067C310.589 245.428 310.449 245.866 310.453 246.313C310.445 246.649 310.544 246.979 310.736 247.255C310.928 247.53 311.202 247.738 311.52 247.847C311.777 247.946 312.057 247.971 312.327 247.921C312.598 247.87 312.849 247.745 313.053 247.56C313.343 247.304 313.546 246.963 313.633 246.587C313.647 246.441 313.669 246.296 313.7 246.153Z" fill="#263238"/>
<path d="M312.767 268.24C312.767 268.24 312.853 268.394 312.833 268.694C312.789 269.124 312.595 269.524 312.287 269.827C312.056 270.06 311.763 270.222 311.443 270.294C311.123 270.366 310.789 270.345 310.48 270.234C310.11 270.107 309.786 269.875 309.547 269.567C309.293 269.229 309.161 268.816 309.173 268.394C309.173 267.87 309.341 267.36 309.653 266.94C309.806 266.739 310.008 266.58 310.24 266.48C310.48 266.387 310.653 266.347 310.853 266.28H310.9C311.329 266.272 311.75 266.395 312.107 266.634C312.342 266.826 312.526 267.073 312.642 267.353C312.758 267.633 312.803 267.938 312.773 268.24C312.733 268.24 312.7 267.947 312.507 267.487C312.399 267.217 312.213 266.985 311.973 266.82C311.65 266.635 311.279 266.55 310.907 266.574H310.953C310.767 266.634 310.54 266.707 310.373 266.774C310.196 266.859 310.042 266.987 309.927 267.147C309.665 267.51 309.525 267.946 309.527 268.394C309.518 268.729 309.617 269.059 309.809 269.335C310.001 269.61 310.276 269.818 310.593 269.927C310.85 270.026 311.13 270.051 311.401 270.001C311.671 269.95 311.923 269.825 312.127 269.64C312.418 269.385 312.621 269.045 312.707 268.667C312.718 268.524 312.738 268.381 312.767 268.24Z" fill="#263238"/>
<path d="M366 172.727C365.96 172.787 365.133 172.26 363.673 171.7C362.808 171.373 361.916 171.121 361.007 170.947C359.907 170.744 358.791 170.643 357.673 170.647C356.552 170.675 355.437 170.807 354.34 171.04C353.447 171.238 352.573 171.513 351.727 171.86C350.28 172.467 349.467 173.014 349.427 172.96C349.593 172.798 349.779 172.657 349.98 172.54C350.193 172.386 350.416 172.246 350.647 172.12C350.958 171.943 351.278 171.783 351.607 171.64C352.465 171.253 353.358 170.947 354.273 170.727C356.509 170.19 358.837 170.158 361.087 170.634C362.001 170.824 362.895 171.105 363.753 171.474C364.087 171.604 364.412 171.755 364.727 171.927C364.957 172.046 365.18 172.179 365.393 172.327C365.613 172.431 365.817 172.566 366 172.727Z" fill="#263238"/>
<g opacity="0.3">
<path d="M311.087 231.16C313.8 227.207 314.8 223.48 316.247 218.907C318.407 212.113 319.007 204.44 322.393 198.167C324.393 194.473 326.727 190.68 330.193 188.313C333.66 185.947 334.073 183.067 334.007 175.12C336.42 175.12 338.98 173.287 339.28 172.96C340.693 171.369 341.709 169.466 342.247 167.407L337.72 172.307C337.72 172.307 331.593 173.447 331.687 173.407C331.533 176.46 331.527 179.14 331.38 182.2C331.38 182.2 319.627 194.667 318.713 197.173C317.8 199.68 311.087 231.16 311.087 231.16Z" fill="black"/>
</g>
<g opacity="0.3">
<path d="M354.727 309.02C369.62 280.827 374.253 243.754 373.393 208.44C373.393 208.44 369.113 251.36 367.673 258.727C366.233 266.094 354.727 309.02 354.727 309.02Z" fill="black"/>
</g>
<path d="M357 151.727C356.899 151.824 356.787 151.909 356.667 151.98L355.673 152.647L352 155.08L339.773 162.96L334.493 166.294L332.807 167.627C332.275 168.015 331.773 168.443 331.307 168.907C330.38 169.8 329.56 170.667 328.82 171.454L328.687 171.6L328.607 171.42C327.813 169.574 327.16 168.087 326.687 166.974C326.48 166.474 326.307 166.074 326.18 165.76C326.103 165.626 326.042 165.483 326 165.334C326.082 165.464 326.156 165.6 326.22 165.74L326.787 166.934L328.787 171.334L328.58 171.3C329.307 170.494 330.12 169.62 331.04 168.707C331.518 168.229 332.028 167.783 332.567 167.374L334.24 166.04L339.513 162.66L351.8 154.86L355.54 152.534L356.567 151.914C356.703 151.834 356.849 151.772 357 151.727Z" fill="#263238"/>
<path d="M142.473 136.667C140.753 131.947 139.047 127.193 138.16 122.247C137.273 117.3 137.233 112.107 138.827 107.333C139.067 106.613 141.153 101.74 141.913 101.793C142.46 101.827 141.247 106.34 141.52 106.8C144.293 111.193 145.2 116.567 144.967 121.76C144.694 126.806 143.858 131.806 142.473 136.667Z" fill="#263238"/>
<path d="M144.093 163.42L142.253 117.807C141.393 105.234 147.027 93.9469 159.62 93.4336H160.953C166.561 93.5297 171.928 95.7344 175.983 99.6086C180.039 103.483 182.487 108.742 182.84 114.34C183.507 125.294 184.173 137.46 183.987 143.334C183.627 155.427 171.5 157.1 171.5 157.1C171.5 157.1 172.013 165.86 172.107 169.407C172.107 169.407 170.827 170.34 159.567 170.74C148.307 171.14 144.093 163.42 144.093 163.42Z" fill="#AE7461"/>
<path d="M171.533 157.127C165.947 157.014 160.51 155.302 155.867 152.193C155.867 152.193 159.553 161.053 171.64 160.193L171.533 157.127Z" fill="#6F4439"/>
<path d="M179.193 125.76C179.188 126.21 179.009 126.639 178.693 126.959C178.377 127.279 177.949 127.463 177.5 127.474C177.28 127.488 177.059 127.458 176.851 127.385C176.643 127.313 176.451 127.199 176.287 127.051C176.124 126.903 175.992 126.724 175.899 126.524C175.806 126.324 175.754 126.107 175.747 125.887C175.748 125.436 175.927 125.005 176.243 124.684C176.56 124.364 176.99 124.18 177.44 124.174C177.66 124.16 177.88 124.191 178.088 124.263C178.296 124.336 178.487 124.45 178.651 124.598C178.814 124.746 178.946 124.925 179.039 125.124C179.132 125.324 179.185 125.54 179.193 125.76Z" fill="#263238"/>
<path d="M162.46 126.2C162.455 126.651 162.275 127.081 161.957 127.401C161.64 127.721 161.21 127.905 160.76 127.913C160.54 127.927 160.32 127.896 160.113 127.823C159.905 127.75 159.715 127.637 159.552 127.489C159.389 127.341 159.257 127.162 159.165 126.962C159.073 126.763 159.021 126.547 159.013 126.327C159.015 125.876 159.193 125.445 159.51 125.124C159.827 124.804 160.256 124.62 160.707 124.613C160.927 124.6 161.147 124.631 161.355 124.703C161.563 124.776 161.754 124.89 161.917 125.038C162.081 125.186 162.213 125.365 162.306 125.564C162.399 125.764 162.452 125.98 162.46 126.2Z" fill="#263238"/>
<path d="M179.82 121.027C179.607 121.253 178.313 120.26 176.453 120.233C174.593 120.207 173.22 121.113 173.02 120.9C172.92 120.8 173.147 120.393 173.747 119.973C174.561 119.432 175.522 119.153 176.5 119.173C177.464 119.191 178.397 119.513 179.167 120.093C179.74 120.52 179.927 120.933 179.82 121.027Z" fill="#263238"/>
<path d="M161.933 121.507C161.713 121.727 160.42 120.74 158.567 120.713C156.713 120.687 155.327 121.587 155.133 121.38C155.033 121.273 155.253 120.873 155.86 120.453C156.673 119.908 157.635 119.629 158.613 119.653C159.577 119.67 160.511 119.993 161.28 120.573C161.853 121 162.04 121.407 161.933 121.507Z" fill="#263238"/>
<path d="M168.493 135.673C168.493 135.567 169.647 135.387 171.52 135.18C172 135.14 172.447 135.053 172.533 134.733C172.583 134.243 172.481 133.75 172.24 133.32L170.907 129.68C169.047 124.5 167.713 120.247 167.92 120.173C168.127 120.1 169.807 124.24 171.667 129.42L172.947 133.073C173.232 133.652 173.308 134.312 173.16 134.94C173.086 135.103 172.976 135.248 172.839 135.363C172.701 135.478 172.54 135.561 172.367 135.607C172.103 135.673 171.832 135.705 171.56 135.7C169.667 135.787 168.5 135.78 168.493 135.673Z" fill="#263238"/>
<path d="M161.947 114.873C161.72 115.36 159.893 114.953 157.693 115.02C155.493 115.087 153.693 115.52 153.44 115.02C153.333 114.793 153.68 114.353 154.433 113.927C155.432 113.413 156.536 113.135 157.659 113.113C158.782 113.091 159.895 113.326 160.913 113.8C161.68 114.213 162.047 114.667 161.947 114.873Z" fill="#263238"/>
<path d="M180 113.574C179.647 114.02 178.133 113.674 176.347 113.774C174.56 113.874 173.067 114.267 172.687 113.854C172.527 113.647 172.733 113.187 173.353 112.767C174.235 112.23 175.239 111.927 176.271 111.887C177.302 111.848 178.327 112.072 179.247 112.54C179.913 112.934 180.147 113.334 180 113.574Z" fill="#263238"/>
<path d="M143.087 126.667C142.88 126.573 134.82 124.067 134.94 132.333C135.06 140.6 143.34 138.78 143.347 138.547C143.353 138.313 143.087 126.667 143.087 126.667Z" fill="#AE7461"/>
<path d="M140.667 135.507C140.627 135.507 140.52 135.607 140.28 135.727C139.934 135.869 139.546 135.869 139.2 135.727C138.327 135.42 137.567 134.047 137.507 132.553C137.472 131.845 137.6 131.138 137.88 130.487C137.954 130.227 138.089 129.988 138.275 129.792C138.461 129.596 138.691 129.448 138.947 129.36C139.113 129.314 139.289 129.328 139.446 129.399C139.603 129.469 139.731 129.592 139.807 129.747C139.92 129.973 139.867 130.14 139.913 130.153C139.96 130.167 140.087 130.013 140.02 129.673C139.969 129.47 139.852 129.289 139.687 129.16C139.457 128.991 139.169 128.919 138.887 128.96C138.543 129.031 138.223 129.192 137.961 129.426C137.699 129.66 137.503 129.959 137.393 130.293C137.054 131.016 136.896 131.81 136.933 132.607C137.007 134.273 137.887 135.82 139.087 136.147C139.313 136.21 139.55 136.222 139.781 136.18C140.012 136.139 140.231 136.045 140.42 135.907C140.627 135.707 140.667 135.52 140.667 135.507Z" fill="#6F4439"/>
<path d="M177.213 100.987C178.547 100.214 174.42 95.9736 171.093 94.5603C166.067 92.4203 158.427 91.227 153.893 92.6136C148.407 94.307 143.893 97.1603 141.227 102.247C138.56 107.334 137.667 113.214 137.967 118.914C138.053 120.667 138.28 122.487 139.247 123.94C140.447 125.747 142.687 126.847 142.647 129.367C142.627 129.825 142.698 130.282 142.856 130.712C143.014 131.142 143.256 131.537 143.567 131.874C145.12 133.447 146.9 131.874 147.753 130.354C149.493 127.074 149.607 123.2 149.68 119.487C149.733 116.82 149.773 114.154 148.973 111.634C148.533 110.267 147.853 108.967 147.493 107.587C147.27 106.901 147.198 106.175 147.284 105.459C147.369 104.743 147.609 104.054 147.987 103.44C148.187 103.197 148.41 102.974 148.653 102.774C149.783 101.74 151.168 101.026 152.666 100.704C154.163 100.383 155.719 100.467 157.173 100.947C161.84 102.487 169.88 104.76 171.92 103.134C174.853 100.787 175.533 99.287 175.533 99.287L177.213 100.987Z" fill="#263238"/>
<path d="M162 136.44C162.3 136.4 162.467 138.44 164.293 139.7C166.12 140.96 168.247 140.593 168.293 140.873C168.293 141 167.847 141.3 166.96 141.4C165.781 141.512 164.6 141.203 163.627 140.527C162.698 139.882 162.055 138.902 161.833 137.793C161.7 136.96 161.88 136.44 162 136.44Z" fill="#263238"/>
<path d="M125.333 277.407C125.333 277.407 118.333 293.82 119.033 300.467C119.733 307.113 123.667 317.187 123.667 317.187H179.087C179.087 317.187 179.36 311.633 180.527 303.427C181.693 295.22 182.413 277.427 182.413 277.427L125.333 277.407Z" fill="#263238"/>
<path d="M176.913 176.127C176.913 177.247 180.62 202.034 181.26 208.44C182.273 218.554 184.947 268.654 184.053 272.987C183.16 277.32 182.96 278.114 182.96 278.114C182.96 278.114 134.48 279.934 128.56 280.454C122.64 280.974 120.133 280.8 118.693 274.04C117.253 267.28 118.953 234.707 118.953 226.154C118.953 216.92 117.8 209.547 117.32 196.934C116.893 186 119.573 179.294 124.773 172.934C129.973 166.574 139.713 159.64 139.713 159.64L143.793 153.687L172.667 168.994L173.333 165.514L175.087 170.934L176.913 176.127Z" fill="#455A64"/>
<g opacity="0.3">
<path d="M189.333 251.394C188.853 250.167 187.293 249.86 186 249.714C173.753 248.38 161.007 245.3 152.067 236.827C148.567 233.494 145.813 229.494 143.153 225.494C137.333 216.7 131.867 207.687 126.4 198.667L122.16 200.267C124.76 212.987 127.32 222.2 131.56 232.627C135.8 243.054 139.08 253.167 149.82 256.58C156.76 258.787 169.94 257.1 177.2 256.527C180.24 256.385 183.255 255.913 186.193 255.12C187.091 254.906 187.925 254.481 188.627 253.88C188.972 253.578 189.222 253.182 189.347 252.741C189.472 252.3 189.468 251.832 189.333 251.394Z" fill="black"/>
</g>
<path d="M120.667 196.96C120.987 197.52 145.487 249.853 156.427 252.007C167.367 254.16 201.367 254.673 208 253.407C214.633 252.14 222.12 250.04 222.12 250.04L223.453 230.447L212.4 230.134C212.4 230.134 187.007 228.767 183.42 227.787C179.833 226.807 176.753 223.44 173.507 223.62L154.173 178.667C154.173 178.667 141.653 167.007 132.667 170.593C123.68 174.18 118.04 192.287 120.667 196.96Z" fill="#455A64"/>
<path d="M151.647 175.14C151.647 175.14 151.3 174.82 150.693 174.26C148.542 172.286 145.95 170.855 143.133 170.087C141.084 169.524 138.95 169.337 136.833 169.534C134.721 169.763 132.666 170.368 130.767 171.32C129.215 172.1 127.783 173.097 126.513 174.28C125.654 175.078 124.875 175.958 124.187 176.907C123.7 177.574 123.453 177.974 123.427 177.96C123.463 177.852 123.512 177.749 123.573 177.654C123.687 177.467 123.833 177.174 124.073 176.834C124.728 175.843 125.49 174.929 126.347 174.107C128.519 171.948 131.228 170.408 134.194 169.646C137.16 168.884 140.276 168.928 143.22 169.774C144.918 170.253 146.535 170.981 148.02 171.934C149.021 172.572 149.949 173.319 150.787 174.16C151.023 174.385 151.245 174.623 151.453 174.874C151.529 174.954 151.593 175.044 151.647 175.14Z" fill="#263238"/>
<path d="M173.447 223.66C173.142 224.957 172.73 226.226 172.213 227.453C171.802 228.722 171.278 229.952 170.647 231.127C170.952 229.83 171.367 228.561 171.887 227.333C172.299 226.066 172.821 224.837 173.447 223.66Z" fill="#263238"/>
<path d="M173.38 170.733C173.149 170.637 172.927 170.523 172.713 170.393L170.9 169.333L171.027 169.273C170.667 171.1 170.32 173.78 169.693 176.993L169.653 177.207L169.467 177.087C166.8 175.4 163.567 173.467 160.133 171.387C157.573 169.86 155.18 168.307 152.973 166.973C150.767 165.64 148.733 164.5 147.027 163.54L143 161.333L141.9 160.713C141.767 160.651 141.641 160.572 141.527 160.48C141.669 160.52 141.806 160.578 141.933 160.653L143.06 161.213C144.033 161.707 145.44 162.44 147.16 163.367C148.88 164.293 150.92 165.427 153.16 166.74L160.333 171.133C163.767 173.207 167 175.133 169.667 176.873L169.44 176.973C170.107 173.78 170.473 171.1 170.887 169.28V169.16L170.987 169.227L172.773 170.333C172.988 170.447 173.191 170.581 173.38 170.733Z" fill="#263238"/>
<g opacity="0.3">
<path d="M145.587 162.62L160.667 173.853C164 176.327 167.387 178.84 171.333 180.107L171.113 169.627L169.567 176.96L145.587 162.62Z" fill="black"/>
</g>
<path d="M222.12 250.04C222.12 250.04 222.12 249.92 222.12 249.693C222.12 249.467 222.12 249.107 222.173 248.673C222.227 247.76 222.307 246.447 222.407 244.76C222.627 241.353 222.94 236.46 223.333 230.44L223.453 230.58L187.053 228.667L181.947 228.387H181.86L181.813 228.32C180.879 226.861 179.639 225.621 178.18 224.687C176.797 223.8 175.119 223.498 173.513 223.847L173.36 223.893L173.307 223.76L161.887 196.867L158.6 189.06C158.227 188.16 157.933 187.453 157.733 186.967C157.647 186.733 157.573 186.553 157.52 186.42C157.467 186.287 157.453 186.233 157.453 186.233C157.491 186.287 157.523 186.345 157.547 186.407L157.787 186.94C158.007 187.427 158.313 188.12 158.707 189.013L162.08 196.787L173.6 223.593L173.393 223.5C174.237 223.304 175.111 223.279 175.964 223.426C176.817 223.574 177.632 223.892 178.36 224.36C179.86 225.321 181.136 226.595 182.1 228.093L182 228L187.107 228.28L223.507 230.28H223.64V230.413C223.2 236.413 222.847 241.32 222.6 244.727C222.467 246.407 222.367 247.72 222.293 248.633C222.26 249.067 222.227 249.4 222.207 249.647C222.188 249.78 222.159 249.911 222.12 250.04Z" fill="#263238"/>
<path d="M181.36 279.287L189.46 317.187H178.307L181.36 279.287Z" fill="#263238"/>
<path d="M180.513 292.98C180.613 292.98 180.187 298.427 179.573 305.127C178.96 311.827 178.38 317.247 178.287 317.233C178.193 317.22 178.613 311.793 179.227 305.093C179.84 298.393 180.42 292.973 180.513 292.98Z" fill="#455A64"/>
</svg>
